# xmcd CD database file
#
# Track frame offsets:
#	150
#	10159
#	22952
#	37391
#	46301
#	59120
#	73951
#	88468
#	104370
#	115039
#	130636
#	141705
#
# Disc length: 2107 seconds
#
# Revision: 0
# Processed by: cddbd v1.5.2PL0 Copyright (c) Steve Scherf et al.
# Submitted via: CDex 1.81
#
DISCID=b808390c
DTITLE=Bar D Wranglers - Cowboy Christmas Carols
DYEAR=2015
DGENRE=Country
TTITLE0=Jolly Old St. Nicholas
TTITLE1=Greensleeves
TTITLE2=Oh Beautiful Star Of Bethlehem
TTITLE3=Mele Kalikimaka
TTITLE4=Mr. Grinch
TTITLE5=Flags On The Christmas Tree
TTITLE6=A Cowboy's Hoilday
TTITLE7=Do You Hear What I Hear
TTITLE8=It's Beginning To Look A Lot Like Christmas
TTITLE9=Colorado
TTITLE10=Thank Gog For Kids
TTITLE11=Feliz Navidad
EXTD=YEAR: 2015
EXTT0=
EXTT1=
EXTT2=
EXTT3=
EXTT4=
EXTT5=
EXTT6=
EXTT7=
EXTT8=
EXTT9=
EXTT10=
EXTT11=
PLAYORDER=
